<?xml version="1.0" encoding="utf-8"?>
<!-- Svg Vector Icons : http://www.onlinewebfonts.com/icon -->
<!DOCTYPE svg PUBLIC "-//W3C//DTD SVG 1.1//EN" "http://www.w3.org/Graphics/SVG/1.1/DTD/svg11.dtd">
<svg version="1.1" xmlns="http://www.w3.org/2000/svg" xmlns:xlink="http://www.w3.org/1999/xlink" x="0px" y="0px" viewBox="0 0 1000 1000" enable-background="new 0 0 1000 1000" xml:space="preserve">
<metadata> Svg Vector Icons : http://www.onlinewebfonts.com/icon </metadata>
<g><path d="M753.3,313.5c0.6-19,9-163.5-66.6-242.5s-227.9-83.2-322-52.5c-79.1,0-99.1,0-99.1,0L285.7,99c0,0-72.2,14.6-59.4,213.3c0,0-45.4-8-38.1,101.2c49.7,0,192.6,13,311.6,110c114-97,254.6-109.9,291.5-109.9C795.3,396.3,794.7,320.2,753.3,313.5z"/><path d="M990,456.9c-364.5-10.1-456.3,123.2-456.3,123.2s0,314.9,0,419.1C691.1,919.7,990,944,990,944c-4.3-31.8-18-92.1-61.8-140.7L990,456.9z"/><path d="M10.7,456.9l60.8,338.9C38.6,830.6,14.2,879.8,10,944c0,0,292.9-36.3,456.9,55.1c0-104.2,0-419.1,0-419.1S376.4,446.4,10.7,456.9z"/></g>
</svg>