<svg xmlns="http://www.w3.org/2000/svg" viewBox="0 0 100 100"><defs><style>.a{fill:#0d2440;}.b{fill:#fff;}</style></defs><title>Icons</title><path class="a" d="M19.26,56.75c.27,2.34,1.77,3.65,3.62,4.69A14.65,14.65,0,0,0,27.37,63a21.4,21.4,0,0,0,5.55.32,19.34,19.34,0,0,0,4.33-.76,10.41,10.41,0,0,0,5.39-3.28,3.8,3.8,0,0,0,.88-2,5.46,5.46,0,0,1,.12-.54c.77.13,1.53.23,2.28.39a19.47,19.47,0,0,1,5.29,1.94,20,20,0,0,1,6.23,5.22,19.61,19.61,0,0,1,2.72,4.57,18.61,18.61,0,0,1,1.32,4.59c.08.57.08,1.16.13,1.73s.14,1.23.13,1.84a12.19,12.19,0,0,1-1,5,7.76,7.76,0,0,1-3.22,3.52,14.52,14.52,0,0,1-5.18,1.66,58.33,58.33,0,0,1-9.09.46c-9.2,0-18.41,0-27.61,0A30.13,30.13,0,0,1,9,87a10.45,10.45,0,0,1-5.44-2.77,8.37,8.37,0,0,1-2.1-4.05,17,17,0,0,1-.19-6,20.42,20.42,0,0,1,1-4A19.47,19.47,0,0,1,5,65a19.82,19.82,0,0,1,6.11-5.52,18.63,18.63,0,0,1,5.67-2.22C17.56,57.06,18.39,56.91,19.26,56.75Z"/><path class="a" d="M65,79.33a23.47,23.47,0,0,0-7.87-20.25,14.84,14.84,0,0,1,8.65-3.76,10,10,0,0,0,.41,1.23,5.21,5.21,0,0,0,2.4,2.31A14.65,14.65,0,0,0,77.2,60.3a12.86,12.86,0,0,0,4.36-1.2,5.81,5.81,0,0,0,2.73-2.33,4.7,4.7,0,0,0,.39-1.16c.05-.21.09-.31.34-.28a15.29,15.29,0,0,1,10.61,6A14.41,14.41,0,0,1,98.11,66a14.58,14.58,0,0,1,.56,7,6.48,6.48,0,0,1-2.59,4.35,9,9,0,0,1-3.31,1.39,24.06,24.06,0,0,1-5.27.57c-7.41,0-14.81,0-22.22,0Z"/><path class="a" d="M53.23,21.22a2.14,2.14,0,0,0-.5-.29l-5-2.18-5.08-2.21-6.29-2.7a30.48,30.48,0,0,0-3.24-1.31,5.93,5.93,0,0,0-4.05.21c-1.46.62-2.92,1.27-4.37,1.9l-5.23,2.25-4,1.74c-1.8.78-3.61,1.54-5.4,2.35-.38.17-.78.43-.76.93s.4.71.79.91h0l1.26.57c.1,0,.24.13.24.21a1.93,1.93,0,0,1,0,.73c0,.12-.25.19-.39.27A1.15,1.15,0,0,0,11,26.49a.74.74,0,0,1,.36.82c0,.14,0,.28,0,.43l-.44,6.07c-.09,1.25-.09,2.51-.29,3.75a10.06,10.06,0,0,0,.86,5.27c0,.13.19.22.29.32a1.62,1.62,0,0,0,.3-.37c.16-.41.28-.83.42-1.24a7.24,7.24,0,0,0,.51-3c-.2-2.43-.37-4.87-.55-7.3-.1-1.35-.18-2.71-.3-4.06a.57.57,0,0,1,.28-.63,1.1,1.1,0,0,0,0-1.89c-.46-.23-.51-.58-.52-1l.19.06c1.42.62,2.84,1.25,4.27,1.84a.6.6,0,0,1,.43.68c0,1.77,0,3.54,0,5.31a1.91,1.91,0,0,1,0,.54,13.71,13.71,0,0,0-.54,3.51,29.64,29.64,0,0,0,.64,6.73,34.57,34.57,0,0,0,1.31,4.63A20,20,0,0,0,23,54.8a12.22,12.22,0,0,0,7.2,3.63,10.67,10.67,0,0,0,6.89-1.51,17.67,17.67,0,0,0,6.62-7.51,26,26,0,0,0,1.95-5.24c.26-1,.44-2,.61-3,.14-.81.2-1.64.3-2.46a16.13,16.13,0,0,0-.27-6.11,3.81,3.81,0,0,1-.17-.87c0-1.91,0-3.83,0-5.74a.44.44,0,0,1,.19-.34c.73-.33,1.48-.64,2.22-1,1.45-.63,2.9-1.24,4.34-1.89C53.68,22.42,53.81,21.7,53.23,21.22ZM44.7,39.76A24.59,24.59,0,0,1,43,46.53a17.38,17.38,0,0,1-5.53,7.55,9.63,9.63,0,0,1-6.71,2.06,9.78,9.78,0,0,1-5.62-2.3,16.58,16.58,0,0,1-4.71-6.18,24.92,24.92,0,0,1-1.79-5.44c-.17-.81-.25-1.63-.37-2.45,0-.14,0-.28,0-.56a20.26,20.26,0,0,1,.34-6.69l8.84,4c.56.24,1.12.5,1.69.74a5.88,5.88,0,0,0,4,.22l.76-.23c.57-.23,1.13-.49,1.69-.74l8.84-4A22.76,22.76,0,0,1,44.7,39.76Z"/><path class="a" d="M92.32,27.49a1.67,1.67,0,0,0-.39-.23L88,25.56l-4-1.73-4.92-2.11a23.83,23.83,0,0,0-2.53-1,4.63,4.63,0,0,0-3.17.17c-1.14.48-2.28,1-3.42,1.48L65.92,24.1l-3.15,1.36c-1.41.61-2.82,1.21-4.22,1.83-.3.13-.61.34-.59.73s.31.56.62.71h0l1,.44c.08,0,.18.1.19.16a1.51,1.51,0,0,1,0,.57c0,.09-.19.15-.3.21a.9.9,0,0,0-.14,1.48.58.58,0,0,1,.28.64c0,.11,0,.22,0,.33l-.34,4.74c-.07,1-.07,2-.22,2.93a7.86,7.86,0,0,0,.67,4.12c0,.1.15.17.22.25a1.26,1.26,0,0,0,.23-.29c.12-.32.22-.65.33-1a5.66,5.66,0,0,0,.4-2.34c-.16-1.9-.29-3.81-.43-5.71-.08-1.06-.14-2.12-.24-3.17a.44.44,0,0,1,.22-.49.86.86,0,0,0,0-1.47C60,30,60,29.73,60,29.36l.15,0c1.11.48,2.22,1,3.34,1.44a.47.47,0,0,1,.34.53c0,1.38,0,2.77,0,4.15a1.49,1.49,0,0,1,0,.42,10.71,10.71,0,0,0-.42,2.74,23.17,23.17,0,0,0,.5,5.27,27,27,0,0,0,1,3.62,15.67,15.67,0,0,0,3.85,6.16,9.55,9.55,0,0,0,5.63,2.84,8.34,8.34,0,0,0,5.39-1.18,13.81,13.81,0,0,0,5.17-5.87,20.29,20.29,0,0,0,1.52-4.1c.2-.78.34-1.57.48-2.37.11-.64.15-1.28.24-1.92a12.61,12.61,0,0,0-.21-4.78,3,3,0,0,1-.13-.68c0-1.5,0-3,0-4.49a.34.34,0,0,1,.15-.26c.57-.26,1.16-.5,1.74-.75,1.13-.49,2.27-1,3.39-1.48C92.67,28.42,92.77,27.86,92.32,27.49ZM85.65,42a19.22,19.22,0,0,1-1.34,5.29A13.58,13.58,0,0,1,80,53.17a7.53,7.53,0,0,1-5.25,1.61,7.65,7.65,0,0,1-4.4-1.8,13,13,0,0,1-3.68-4.83,19.48,19.48,0,0,1-1.4-4.26c-.14-.63-.2-1.27-.29-1.91,0-.11,0-.22,0-.43a15.84,15.84,0,0,1,.27-5.23l6.91,3.14c.44.19.88.39,1.32.58a4.59,4.59,0,0,0,3.11.17l.6-.18c.44-.18.88-.39,1.32-.58l6.91-3.14A17.79,17.79,0,0,1,85.65,42Z"/><path class="b" d="M85.65,42a19.22,19.22,0,0,1-1.34,5.29A13.58,13.58,0,0,1,80,53.17a7.53,7.53,0,0,1-5.25,1.61,7.65,7.65,0,0,1-4.4-1.8,13,13,0,0,1-3.68-4.83,19.48,19.48,0,0,1-1.4-4.26c-.14-.63-.2-1.27-.29-1.91,0-.11,0-.22,0-.43a15.84,15.84,0,0,1,.27-5.23l6.91,3.14c.44.19.88.39,1.32.58a4.59,4.59,0,0,0,3.11.17l.6-.18c.44-.18.88-.39,1.32-.58l6.91-3.14A17.79,17.79,0,0,1,85.65,42Z"/><path class="b" d="M44.7,39.76A24.59,24.59,0,0,1,43,46.53a17.38,17.38,0,0,1-5.53,7.55,9.63,9.63,0,0,1-6.71,2.06,9.78,9.78,0,0,1-5.62-2.3,16.58,16.58,0,0,1-4.71-6.18,24.92,24.92,0,0,1-1.79-5.44c-.17-.81-.25-1.63-.37-2.45,0-.14,0-.28,0-.56a20.26,20.26,0,0,1,.34-6.69l8.84,4c.56.24,1.12.5,1.69.74a5.88,5.88,0,0,0,4,.22l.76-.23c.57-.23,1.13-.49,1.69-.74l8.84-4A22.76,22.76,0,0,1,44.7,39.76Z"/></svg>